<svg id="Capa_1" data-name="Capa 1" xmlns="http://www.w3.org/2000/svg" viewBox="0 0 53.88 50.1"><defs><style>.cls-1{fill:#fff;}</style></defs><title>compromiso</title><path class="cls-1" d="M55.29,39.2c-.17-.67-.36-1.36-.54-2L51,23.38a1.81,1.81,0,0,0-2.59-1.49c-1,.28-2,.57-2.94.84a3.76,3.76,0,0,0-3,3.25.7.7,0,0,1-.42.44A4.81,4.81,0,0,1,38,26.06c-.52-.29-1.09-.49-1.63-.76a6.33,6.33,0,0,0-6.41.27,1.31,1.31,0,0,1-.72.22,17.86,17.86,0,0,0-8,.58,15.52,15.52,0,0,1-3.32.28c-.38,0-.62-.15-.66-.63a3.59,3.59,0,0,0-1.86-2.85c-1.08-.63-2.15-1.23-3.25-1.81a1.77,1.77,0,0,0-2.56.76q-4,7.32-7.88,14.65a1.79,1.79,0,0,0,.8,2.6c1,.56,2.08,1.12,3.13,1.65A3.64,3.64,0,0,0,10,40.3a2.24,2.24,0,0,0,.29-.39l2.32,1.45c-.36.57-.71,1.05-1,1.58a2.53,2.53,0,0,0,2,3.8l.55,0a2.57,2.57,0,0,0,.92,2.7,2.52,2.52,0,0,0,2.86.18c.73,1.91,1.87,2.4,3.91,1.73a2.49,2.49,0,0,0,2.2,2,2.59,2.59,0,0,0,2.66-1.48c.25-.43.53-.83.82-1.28.81.49,1.55,1,2.3,1.43a2.93,2.93,0,0,0,4.35-1.69l.13-.43c2.11.06,2.9-.47,3.66-2.49A3.07,3.07,0,0,0,41.7,44c1.9-.76,2.38-1.56,2.27-3.75.61-.09,1.21-.17,1.82-.29a.5.5,0,0,1,.68.34,3.53,3.53,0,0,0,4,2c1.23-.27,2.45-.61,3.66-1A1.69,1.69,0,0,0,55.29,39.2ZM42.08,41.81a1.23,1.23,0,0,1-1.81.2L36.2,39.13l-.34-.25a.88.88,0,0,0-1.28.13.85.85,0,0,0,.28,1.25c1.28.93,2.57,1.84,3.86,2.76.2.13.4.27.59.42a1.23,1.23,0,0,1,.39,1.82,1.26,1.26,0,0,1-1.82.19c-1.82-1.29-3.61-2.58-5.44-3.86a1.17,1.17,0,0,0-.81-.28,1.21,1.21,0,0,0-.7.62c-.18.39.07.73.4,1l3.92,2.78c.15.11.3.21.44.33A1.2,1.2,0,0,1,36,47.74a1.21,1.21,0,0,1-1.72.25c-1.1-.76-2.19-1.56-3.28-2.33l-1.92-1.36c-.61-.43-1.1-.39-1.41.07s-.15.92.42,1.31l3.82,2.72a1.39,1.39,0,0,1,.71,1.19,1.2,1.2,0,0,1-1.78,1c-.79-.43-1.54-.92-2.29-1.39.64-2.56-.4-4-2.85-3.8a2.61,2.61,0,0,0-.8-2.2,2.74,2.74,0,0,0-2.32-.64,2.58,2.58,0,0,0-4.2-2.27,2.6,2.6,0,0,0-4.84-.39l-2.31-1.44c.1-.2.18-.38.28-.55,1.69-3.06,3.41-6.12,5.11-9.18a.69.69,0,0,1,.92-.44,10.29,10.29,0,0,0,5.14-.49,13,13,0,0,1,4.66-.51l-.44.42c-1.11,1-2.24,2-3.33,3a3,3,0,0,0-.36,4,3,3,0,0,0,4,.81c1.17-.66,2.31-1.36,3.45-2.08a1.52,1.52,0,0,1,1.83,0c3.09,2.15,6.18,4.3,9.27,6.46A1.24,1.24,0,0,1,42.08,41.81ZM50,40.61a1.81,1.81,0,0,1-2.13-1.35q-1.8-6.18-3.56-12.39a1.9,1.9,0,0,1,1.39-2.41c1.16-.35,2.3-.66,3.55-1,1.48,5.44,2.93,10.82,4.41,16.25C52.39,40,51.21,40.38,50,40.61Z" transform="translate(-1.47 -3.3)"/><path class="cls-1" d="M28,3.3a8.91,8.91,0,1,0,8.89,8.91A8.91,8.91,0,0,0,28,3.3Zm3.48,7.55c-.33.38-.7.72-1,1.08L27.8,14.55c-.58.58-1,.57-1.57,0s-1-1-1.53-1.53-.58-1-.18-1.4.88-.3,1.4.21l1,1,.19.08,2.72-2.74a6.11,6.11,0,0,1,.47-.46.8.8,0,0,1,1.18,0A.79.79,0,0,1,31.48,10.85Z" transform="translate(-1.47 -3.3)"/></svg>