<svg id="Capa_1" data-name="Capa 1" xmlns="http://www.w3.org/2000/svg" viewBox="0 0 30.82 35.76"><defs><style>.cls-1{fill:#fff;}</style></defs><title>confiabilidad</title><path class="cls-1" d="M43.86,16.51c-.06-.55-.23-.73-.77-.8-.32,0-.63,0-1-.1a25,25,0,0,1-6.76-2A26.94,26.94,0,0,1,29.06,9.8h-.83l0,.07a28.77,28.77,0,0,1-7.88,4.44,24.73,24.73,0,0,1-6.23,1.43.6.6,0,0,0-.58.57c-.08.7-.13,1.39-.18,2.09A27.81,27.81,0,0,0,13.46,24a41.66,41.66,0,0,0,.76,4.42,25,25,0,0,0,5.71,11.14,23.82,23.82,0,0,0,8.37,6,.94.94,0,0,0,.7,0,24.56,24.56,0,0,0,6.15-3.8A24,24,0,0,0,42,32a32,32,0,0,0,2-9.36A34.53,34.53,0,0,0,43.86,16.51ZM42.59,23a28.49,28.49,0,0,1-3.09,11.2,21.55,21.55,0,0,1-8.63,8.89c-.65.37-1.33.69-2,1a.58.58,0,0,1-.41,0,22.66,22.66,0,0,1-7.32-5.19,23.58,23.58,0,0,1-5.31-9.72,31.62,31.62,0,0,1-1-5.3,35.76,35.76,0,0,1-.16-5.57c0-.43.07-.85.11-1.3a28.22,28.22,0,0,0,13.91-5.78A28.29,28.29,0,0,0,42.56,17c0,.43.11.85.11,1.27C42.66,19.84,42.71,21.41,42.59,23Z" transform="translate(-13.24 -9.8)"/><path class="cls-1" d="M40.18,19.33a.71.71,0,0,0-.75-.78,17.56,17.56,0,0,1-4.69-1.13,21.07,21.07,0,0,1-5.66-3.23.68.68,0,0,0-.87,0c-.24.19-.48.39-.73.57a19.82,19.82,0,0,1-9.68,3.79.67.67,0,0,0-.66.58c0,.22-.06.45-.08.68a31.63,31.63,0,0,0,.1,5.24,24.41,24.41,0,0,0,1.21,5.35,17.89,17.89,0,0,0,9.91,10.73.81.81,0,0,0,.71,0A17.64,17.64,0,0,0,38.28,32a24.75,24.75,0,0,0,2.06-10.08C40.29,21.06,40.23,20.19,40.18,19.33Zm-6.52,6.13-2.29,2.25-3,2.91a1.6,1.6,0,0,1-1,.53,3.31,3.31,0,0,1-.64-.36c-1-1-2-1.91-3-2.87a1,1,0,0,1-.33-1,1,1,0,0,1,.81-.74,1,1,0,0,1,.88.32L26.75,28l.23.23a.66.66,0,0,0,1,0L32.28,24a1,1,0,0,1,1.75.45A1,1,0,0,1,33.66,25.46Z" transform="translate(-13.24 -9.8)"/></svg>