<svg id="Capa_1" data-name="Capa 1" xmlns="http://www.w3.org/2000/svg" viewBox="0 0 30.83 27.9"><defs><style>.cls-1{fill:#fff;}</style></defs><title>dibujar</title><path class="cls-1" d="M42.77,16.42a1.77,1.77,0,0,0-.42.15,16.94,16.94,0,0,0-3.25,2.21c-1,.77-1.91,1.56-2.9,2.37l-.13-.33a14,14,0,0,0-2.44-3.92,13.81,13.81,0,0,0-7.51-4.42,12.14,12.14,0,0,0-5.33-.06,12.92,12.92,0,0,0-5.69,2.72,5.72,5.72,0,0,0-2.17,3.7,4.56,4.56,0,0,0,1.73,4.33c.52.42,1.06.8,1.55,1.25a2.21,2.21,0,0,1-.07,3.43c-.62.52-1.26,1-1.86,1.54a4.76,4.76,0,0,0-.76,5.77,8.13,8.13,0,0,0,2.78,2.78,13.59,13.59,0,0,0,5.81,2,11.6,11.6,0,0,0,4.23-.31A13.78,13.78,0,0,0,35.79,32a13.16,13.16,0,0,0,1.31-5.56.52.52,0,0,1,.11-.32c1-1.2,2-2.38,3-3.59a32.66,32.66,0,0,0,3-4.16,4.2,4.2,0,0,0,.43-1.08A.75.75,0,0,0,42.77,16.42ZM34.4,32.22a12.75,12.75,0,0,1-9.34,6.54,11.6,11.6,0,0,1-7.41-1.35A8.75,8.75,0,0,1,15,35.26a3.87,3.87,0,0,1-.37-4.5,7.28,7.28,0,0,1,1.48-1.4,8.48,8.48,0,0,0,1.39-1.28,3.3,3.3,0,0,0-.4-4.43,16.43,16.43,0,0,0-1.52-1.24A3.72,3.72,0,0,1,14.9,17,9.43,9.43,0,0,1,19,14.18a11.32,11.32,0,0,1,5.49-.81,12.84,12.84,0,0,1,10,6.82c.3.57.54,1.16.81,1.75-.69.63-1.37,1.21-2,1.83l-4.86,4.61a1.23,1.23,0,0,1-.7.35,4,4,0,0,0-3.47,3.33c-.14.66-.3,1.31-.47,2a1.3,1.3,0,0,1-1.22,1.06.58.58,0,0,0-.18,1.11,8.61,8.61,0,0,0,5.64.37,4.9,4.9,0,0,0,3-2.74c.21-.45.34-.94.51-1.41a.94.94,0,0,1,.17-.31c1.33-1.44,2.67-2.87,4-4.31l.12-.1A12.45,12.45,0,0,1,34.4,32.22Zm-4,.09a4.69,4.69,0,0,1-1.55,2.52,4.19,4.19,0,0,1-2.26.86,8.82,8.82,0,0,1-2.39-.15,4.88,4.88,0,0,0,1-2.3c.11-.48.22-1,.36-1.43a2.83,2.83,0,0,1,2.34-2,.53.53,0,0,1,.59.19c.61.64,1.24,1.27,1.86,1.89A.34.34,0,0,1,30.42,32.31Z" transform="translate(-12.88 -12.15)"/><path class="cls-1" d="M21.14,20.31a2.48,2.48,0,1,1-5-.06,2.5,2.5,0,0,1,2.68-2.46A2.45,2.45,0,0,1,21.14,20.31Z" transform="translate(-12.88 -12.15)"/><path class="cls-1" d="M33.43,22.2a2.5,2.5,0,1,1-2.58-2.34A2.55,2.55,0,0,1,33.43,22.2Z" transform="translate(-12.88 -12.15)"/><path class="cls-1" d="M21.86,32.7a2.48,2.48,0,0,1-2.43,2.48,2.5,2.5,0,1,1-.08-5A2.48,2.48,0,0,1,21.86,32.7Z" transform="translate(-12.88 -12.15)"/><path class="cls-1" d="M27.8,18.4a2.5,2.5,0,0,1-5,0,2.5,2.5,0,1,1,5,0Z" transform="translate(-12.88 -12.15)"/></svg>