<svg id="Capa_1" data-name="Capa 1" xmlns="http://www.w3.org/2000/svg" viewBox="0 0 22.41 50.09"><defs><style>.cls-1{fill:#fff;}</style></defs><title>facebook_ico</title><path class="cls-1" d="M40.89,22.11c-.25,2.36-.52,4.71-.74,7.07-.08.78-.36,1.11-1.06,1.1-1.71,0-3.42,0-5.29,0V31.6q0,10.25,0,20.48a6.59,6.59,0,0,1-.38,1.53H24.51a6.62,6.62,0,0,1-.39-1.53c0-6.86,0-13.73,0-20.59v-1.3c-1.55,0-3,0-4.43,0-.86,0-1.16-.36-1.14-1.31,0-2.34,0-4.68,0-7,0-1.41,0-1.45,1.26-1.46l4.25,0c.06,0,.12-.05.29-.15a53.5,53.5,0,0,0,0-5.8,9.74,9.74,0,0,1,8-10.7c.25,0,.5-.14.75-.21h7.51a4.12,4.12,0,0,1,.4,1.18c0,2.3,0,4.6,0,6.9,0,.89-.34,1.17-1.07,1.16q-1.83,0-3.66,0c-1.81,0-2.42.74-2.42,2.76,0,1.59,0,3.17,0,4.89h5.78C40.9,20.41,41,20.61,40.89,22.11Z" transform="translate(-18.54 -3.52)"/></svg>