<svg id="Capa_1" data-name="Capa 1" xmlns="http://www.w3.org/2000/svg" viewBox="0 0 56.69 56.69"><defs><style>.cls-1{fill:#05567a;}</style></defs><title>Mesa de trabajo 2</title><path class="cls-1" d="M26.45,31.86a21.32,21.32,0,0,1-.84,6.24,12.78,12.78,0,0,1-2.48,4.66,10.55,10.55,0,0,1-4,2.9,14.37,14.37,0,0,1-5.53,1,14.65,14.65,0,0,1-5.27-.89,9.93,9.93,0,0,1-3.95-2.71,12.27,12.27,0,0,1-2.47-4.53A21.16,21.16,0,0,1,1,32.19V9.13a1,1,0,0,1,.14-.53,1,1,0,0,1,.52-.38,4.51,4.51,0,0,1,1-.23A11,11,0,0,1,4.2,7.9,10.79,10.79,0,0,1,5.72,8a4.27,4.27,0,0,1,1,.23,1.09,1.09,0,0,1,.52.38.93.93,0,0,1,.16.53V31.51a14.79,14.79,0,0,0,.46,3.91,7.67,7.67,0,0,0,1.31,2.74,5.46,5.46,0,0,0,2,1.63,6.33,6.33,0,0,0,2.66.54,6.18,6.18,0,0,0,2.67-.56,5.36,5.36,0,0,0,2-1.63,7.8,7.8,0,0,0,1.26-2.64A13,13,0,0,0,20.2,32V9.13a1,1,0,0,1,.14-.53,1,1,0,0,1,.51-.38,4.28,4.28,0,0,1,1-.23,11.06,11.06,0,0,1,1.53-.09,10.53,10.53,0,0,1,1.5.09,4.26,4.26,0,0,1,1,.23,1,1,0,0,1,.51.38,1,1,0,0,1,.14.53Z"/><path class="cls-1" d="M55.4,43.08A9.85,9.85,0,0,1,56,44.72a1,1,0,0,1-.16.94,1.63,1.63,0,0,1-1,.41,19.38,19.38,0,0,1-2.11.09q-1.13,0-1.78-.06a4.36,4.36,0,0,1-1-.19,1.08,1.08,0,0,1-.54-.37A2.25,2.25,0,0,1,49,45L43.18,31.28,37.35,45a2.88,2.88,0,0,1-.31.59,1.08,1.08,0,0,1-.54.37,4.39,4.39,0,0,1-1,.19q-.66.06-1.74.06a16.24,16.24,0,0,1-1.94-.09,1.32,1.32,0,0,1-.93-.41,1.11,1.11,0,0,1-.1-.94,9.87,9.87,0,0,1,.6-1.64l7.46-16.55L31.89,11a12.92,12.92,0,0,1-.59-1.68,1,1,0,0,1,.12-.94,1.56,1.56,0,0,1,1-.38q.75-.07,2.12-.07,1.13,0,1.79.06a4.63,4.63,0,0,1,1,.19,1,1,0,0,1,.54.37,3.38,3.38,0,0,1,.3.59L43.7,21.64,49,9.1a3.38,3.38,0,0,1,.3-.59,1,1,0,0,1,.51-.37,3.88,3.88,0,0,1,1-.19q.61-.06,1.7-.06t1.9.07a1.39,1.39,0,0,1,1,.4,1.07,1.07,0,0,1,.13.94A11.84,11.84,0,0,1,54.94,11L48,26.44Z"/></svg>