<svg id="Capa_1" data-name="Capa 1" xmlns="http://www.w3.org/2000/svg" viewBox="0 0 56.69 56.69"><defs><style>.cls-1{fill:#05567a;}</style></defs><title>Mesa de trabajo 1</title><path class="cls-1" d="M35.85,32.3a17.79,17.79,0,0,1-1,6.24,12.25,12.25,0,0,1-3,4.66,13.11,13.11,0,0,1-4.92,2.9,20.93,20.93,0,0,1-6.74,1,21.35,21.35,0,0,1-6.42-.89,12.45,12.45,0,0,1-4.8-2.71,11.83,11.83,0,0,1-3-4.53,17.66,17.66,0,0,1-1-6.34V9.57A.86.86,0,0,1,5.05,9a1.24,1.24,0,0,1,.63-.38,6.5,6.5,0,0,1,1.19-.23,16.28,16.28,0,0,1,1.87-.09,16,16,0,0,1,1.85.09,6.15,6.15,0,0,1,1.17.23,1.34,1.34,0,0,1,.63.38.82.82,0,0,1,.19.53V32a12.3,12.3,0,0,0,.56,3.91,7.2,7.2,0,0,0,1.6,2.74,6.6,6.6,0,0,0,2.49,1.63,9.19,9.19,0,0,0,3.24.54,8.94,8.94,0,0,0,3.25-.56,6.46,6.46,0,0,0,2.43-1.63,7.31,7.31,0,0,0,1.54-2.64,10.86,10.86,0,0,0,.54-3.56V9.57A.86.86,0,0,1,28.4,9,1.24,1.24,0,0,1,29,8.66a6.16,6.16,0,0,1,1.19-.23,16.38,16.38,0,0,1,1.86-.09,15.56,15.56,0,0,1,1.83.09,6.14,6.14,0,0,1,1.16.23,1.24,1.24,0,0,1,.62.38.86.86,0,0,1,.18.53Z"/><path class="cls-1" d="M51.81,45.37a.81.81,0,0,1-.19.53,1.34,1.34,0,0,1-.63.38,6.15,6.15,0,0,1-1.17.23,19.89,19.89,0,0,1-3.74,0,6.17,6.17,0,0,1-1.19-.23,1.34,1.34,0,0,1-.63-.38.81.81,0,0,1-.19-.53V9.57A.82.82,0,0,1,44.27,9a1.35,1.35,0,0,1,.64-.38,6.5,6.5,0,0,1,1.19-.23,16,16,0,0,1,1.85-.09,16.29,16.29,0,0,1,1.88.09A6.15,6.15,0,0,1,51,8.66a1.34,1.34,0,0,1,.63.38.82.82,0,0,1,.19.53Z"/></svg>