<svg id="Capa_1" data-name="Capa 1" xmlns="http://www.w3.org/2000/svg" viewBox="0 0 56.69 56.69"><defs><style>.cls-1{fill:#05567a;}</style></defs><title>Mesa de trabajo 4</title><g id="logos"><path class="cls-1" d="M17.52,2.63A3.69,3.69,0,0,1,18.05,4l-.56,42.2,34.3-.31a3.49,3.49,0,0,1,1.3.22,2.11,2.11,0,0,1,.93.73,3.56,3.56,0,0,1,.56,1.34,11.39,11.39,0,0,1,0,4.1A4,4,0,0,1,54,53.68a2.16,2.16,0,0,1-.93.79,3.23,3.23,0,0,1-1.3.24H7.72a9.61,9.61,0,0,1-4.13-.79,2.67,2.67,0,0,1-1.67-2.58V3.68A.9.9,0,0,1,2.41,3,4.43,4.43,0,0,1,4,2.42,27.47,27.47,0,0,1,7,2.1Q8.91,2,11.73,2t4.76.12"/><path class="cls-1" d="M54.77,15.73a11.74,11.74,0,0,1-.94,4.75A9.79,9.79,0,0,1,51,24.19a13.54,13.54,0,0,1-4.79,2.4,24,24,0,0,1-6.73.85A24.73,24.73,0,0,1,33,26.68a12.65,12.65,0,0,1-4.57-2.19,8.76,8.76,0,0,1-2.69-3.54,12.38,12.38,0,0,1-.88-4.8,11.65,11.65,0,0,1,1-4.77,9.81,9.81,0,0,1,2.87-3.7,13.67,13.67,0,0,1,4.78-2.39,23.85,23.85,0,0,1,6.72-.85,25.23,25.23,0,0,1,6.52.74,12.35,12.35,0,0,1,4.56,2.18,8.82,8.82,0,0,1,2.68,3.54A12.44,12.44,0,0,1,54.77,15.73ZM46.65,16a11,11,0,0,0-.33-2.78A5.57,5.57,0,0,0,45.21,11a5.18,5.18,0,0,0-2.08-1.46A8.79,8.79,0,0,0,39.86,9a9.14,9.14,0,0,0-3.07.47,5.37,5.37,0,0,0-2.16,1.37A5.82,5.82,0,0,0,33.36,13a9.13,9.13,0,0,0-.42,2.89,10.57,10.57,0,0,0,.34,2.78,5.85,5.85,0,0,0,1.11,2.21,5,5,0,0,0,2.08,1.45,9,9,0,0,0,3.26.51,9.25,9.25,0,0,0,3.1-.47A5.43,5.43,0,0,0,45,21a5.55,5.55,0,0,0,1.25-2.16A9.45,9.45,0,0,0,46.65,16Z"/><path class="cls-1" d="M54.77,29a7.26,7.26,0,0,1-.08,1.15,2.79,2.79,0,0,1-.22.77.89.89,0,0,1-.35.4,1,1,0,0,1-.49.12,3.78,3.78,0,0,1-1.32-.41,23.16,23.16,0,0,0-2.43-.9,33.18,33.18,0,0,0-3.61-.9,25.39,25.39,0,0,0-4.87-.41,18,18,0,0,0-5.36.75,12.33,12.33,0,0,0-4.1,2.12A9.32,9.32,0,0,0,29.31,35a9.75,9.75,0,0,0-.91,4.25,10.31,10.31,0,0,0,.93,4.5A9,9,0,0,0,31.93,47a11.54,11.54,0,0,0,4,2,19,19,0,0,0,5.19.67,16.38,16.38,0,0,0,2.74-.23,12.61,12.61,0,0,0,2.52-.69V41.85H38.68a1,1,0,0,1-.88-.52,3.59,3.59,0,0,1-.32-1.76,6.24,6.24,0,0,1,.08-1.08,2.11,2.11,0,0,1,.24-.7,1.06,1.06,0,0,1,.38-.39,1,1,0,0,1,.5-.13H52.46a2.94,2.94,0,0,1,.9.13,2,2,0,0,1,.69.38,1.68,1.68,0,0,1,.46.61,2,2,0,0,1,.16.82V51.05a2.19,2.19,0,0,1-.33,1.21,2.32,2.32,0,0,1-1.36.82q-1,.3-2.54.62t-3.14.55q-1.62.23-3.28.35t-3.33.12a34.23,34.23,0,0,1-8.75-1,19.58,19.58,0,0,1-6.55-3A13.19,13.19,0,0,1,21.3,46a13.81,13.81,0,0,1-1.42-6.34,14,14,0,0,1,1.51-6.57,14.24,14.24,0,0,1,4.29-4.95A20.35,20.35,0,0,1,32.39,25a32.94,32.94,0,0,1,8.75-1.08,40.2,40.2,0,0,1,4.83.26,36,36,0,0,1,3.8.64,18.33,18.33,0,0,1,2.7.82,7.2,7.2,0,0,1,1.5.76,1.79,1.79,0,0,1,.62.91A6,6,0,0,1,54.77,29Z"/></g></svg>