<svg id="Capa_1" data-name="Capa 1" xmlns="http://www.w3.org/2000/svg" viewBox="0 0 56.69 56.69"><defs><style>.cls-1{fill:#fff;}</style></defs><title>Mesa de trabajo 3</title><g id="BRAND"><polygon class="cls-1" points="25.59 28.39 27.54 30.35 29.5 26.44 29.49 26.44 25.59 28.39"/><path class="cls-1" d="M22.44,22.26a1.16,1.16,0,0,0,.54-.09,1.48,1.48,0,0,0,.48-.33,1.45,1.45,0,0,0,.42-.73,1.19,1.19,0,0,0-.18-.84,3,3,0,0,0-.2-.29,4.63,4.63,0,0,0-.36-.39L22.52,19l-2,2,.71.71a2.42,2.42,0,0,0,.59.45A1.47,1.47,0,0,0,22.44,22.26Z"/><path class="cls-1" d="M55.08,38.41,20.89,4.23v0h0l0,0,0,0-2.29-.3L.23,1.49,3.35,22l.18-.19L37.6,55.88a1.17,1.17,0,0,0,1.65,0L55.08,40.07A1.17,1.17,0,0,0,55.08,38.41ZM5.39,8.89A1.89,1.89,0,1,1,7.28,7,1.89,1.89,0,0,1,5.39,8.89ZM13.84,21a3.51,3.51,0,0,1-.82-.27,4.83,4.83,0,0,1-.8-.48,7.59,7.59,0,0,1-.81-.7L9.59,17.69a.62.62,0,0,1-.19-.4.61.61,0,0,1,.22-.46l6-6a.6.6,0,0,1,.46-.22.61.61,0,0,1,.4.19l1.73,1.73a6.61,6.61,0,0,1,1,1.18,3,3,0,0,1,.42,1.06,2,2,0,0,1-.09,1,2.51,2.51,0,0,1-.62.94,2.36,2.36,0,0,1-.54.41,2,2,0,0,1-1.21.24,2.15,2.15,0,0,1-.63-.19,2.59,2.59,0,0,1,.36.73,2.16,2.16,0,0,1,.09.78,2.29,2.29,0,0,1-.2.78,2.52,2.52,0,0,1-.53.74,2.91,2.91,0,0,1-.77.57,2.47,2.47,0,0,1-1.63.22Zm6.87,7.17a.83.83,0,0,1-.12.17.29.29,0,0,1-.12.08.24.24,0,0,1-.17,0,1.44,1.44,0,0,1-.27-.2c-.11-.1-.25-.23-.43-.41l-.35-.37a1.06,1.06,0,0,1-.17-.25A.31.31,0,0,1,19,27a.6.6,0,0,1,.06-.16L20,24.64c.1-.25.18-.47.25-.68a2.15,2.15,0,0,0,.1-.58,1.22,1.22,0,0,0-.1-.51,1.45,1.45,0,0,0-.33-.46L19.51,22,16.88,24.6a.21.21,0,0,1-.13.06.35.35,0,0,1-.18,0,1.55,1.55,0,0,1-.26-.17,4,4,0,0,1-.36-.33,3.87,3.87,0,0,1-.32-.35,1.62,1.62,0,0,1-.17-.26.32.32,0,0,1,0-.18.23.23,0,0,1,.07-.13l6.26-6.26a.61.61,0,0,1,.46-.22.62.62,0,0,1,.4.19l1.78,1.79c.18.18.33.33.44.46l.29.35a4.05,4.05,0,0,1,.55,1,2.53,2.53,0,0,1,.19.94,2.21,2.21,0,0,1-.19.9,2.83,2.83,0,0,1-.61.85,3.1,3.1,0,0,1-.72.54,2.3,2.3,0,0,1-.77.25,2.46,2.46,0,0,1-.81,0,3.25,3.25,0,0,1-.84-.3,2.21,2.21,0,0,1,.11.47,2.26,2.26,0,0,1,0,.51,3.77,3.77,0,0,1-.12.57,6,6,0,0,1-.23.65l-.78,1.94C20.81,27.94,20.75,28.08,20.71,28.16ZM27.38,35a.26.26,0,0,1-.21.13.49.49,0,0,1-.28-.14c-.11-.09-.25-.22-.42-.4l-.42-.43a1.39,1.39,0,0,1-.2-.26.29.29,0,0,1,0-.18.54.54,0,0,1,.06-.17l.92-1.85L24.2,29.16l-1.78.91a.6.6,0,0,1-.18.07.32.32,0,0,1-.19,0,1.27,1.27,0,0,1-.26-.18l-.38-.36a5,5,0,0,1-.37-.4.41.41,0,0,1-.11-.27.3.3,0,0,1,.14-.21,2.53,2.53,0,0,1,.38-.22l8.25-4a.77.77,0,0,1,.22-.07.37.37,0,0,1,.22.05,1.6,1.6,0,0,1,.3.22l.44.43.49.51a1.94,1.94,0,0,1,.25.33.38.38,0,0,1,.06.24.73.73,0,0,1-.08.24l-4,8.25A2.86,2.86,0,0,1,27.38,35ZM34,41.53a.65.65,0,0,1-.27,0,.68.68,0,0,1-.26-.08,1,1,0,0,1-.23-.17l-.6-.6a1.69,1.69,0,0,1-.29-.36A.9.9,0,0,1,32.2,40a1.68,1.68,0,0,1,0-.49,6.8,6.8,0,0,1,.2-.67l1.51-4.94c.09-.29.2-.6.32-.92s.24-.64.37-.93h0l-.73.8-.78.8-3.61,3.61a.22.22,0,0,1-.13.07.29.29,0,0,1-.17,0,1.1,1.1,0,0,1-.24-.15,3.39,3.39,0,0,1-.33-.3,3.5,3.5,0,0,1-.29-.32,1.12,1.12,0,0,1-.15-.24.28.28,0,0,1,0-.17.24.24,0,0,1,.07-.12l6.2-6.2a.66.66,0,0,1,.52-.23.74.74,0,0,1,.48.23l.75.75a2.14,2.14,0,0,1,.31.37,1,1,0,0,1,.13.36,1.27,1.27,0,0,1,0,.42,3.94,3.94,0,0,1-.15.55L35.3,36.09l-.22.68-.22.67-.23.64-.23.62h0l.75-.8.76-.78,3.24-3.23a.23.23,0,0,1,.13-.07.37.37,0,0,1,.18,0,1,1,0,0,1,.24.15,3.56,3.56,0,0,1,.33.3,3.45,3.45,0,0,1,.29.32.84.84,0,0,1,.14.23.3.3,0,0,1,0,.17.25.25,0,0,1-.07.12l-6.2,6.2A.75.75,0,0,1,34,41.53Zm11.77,2.32a5.9,5.9,0,0,1-1.21,1.67,6.7,6.7,0,0,1-1.87,1.37,3.9,3.9,0,0,1-1.81.39,4,4,0,0,1-1.75-.5,7.83,7.83,0,0,1-1.78-1.38l-1.65-1.65a.61.61,0,0,1-.19-.4.6.6,0,0,1,.22-.46l6-6a.61.61,0,0,1,.46-.22.62.62,0,0,1,.4.19l1.77,1.77a7,7,0,0,1,1.35,1.78,4,4,0,0,1,.44,1.72A3.89,3.89,0,0,1,45.73,43.85Z"/><path class="cls-1" d="M16.44,15.9a1.11,1.11,0,0,0,.47-.11,1.52,1.52,0,0,0,.41-.3,1.41,1.41,0,0,0,.31-.44,1,1,0,0,0,.08-.47,1.25,1.25,0,0,0-.15-.49,2.6,2.6,0,0,0-.46-.58l-.71-.71L14.6,14.6l.78.78a1.91,1.91,0,0,0,.56.41A1.19,1.19,0,0,0,16.44,15.9Z"/><path class="cls-1" d="M14.41,16.45l-.83-.83-2,2,1,1a2.38,2.38,0,0,0,.55.43,1.44,1.44,0,0,0,.53.16,1.18,1.18,0,0,0,.53-.07,1.36,1.36,0,0,0,.49-.33,1.55,1.55,0,0,0,.35-.51,1.14,1.14,0,0,0,.08-.55,1.56,1.56,0,0,0-.2-.59A3.28,3.28,0,0,0,14.41,16.45Z"/><path class="cls-1" d="M43.14,39.65l-.71-.71-4.69,4.69.73.73a3.89,3.89,0,0,0,1.12.82,2.33,2.33,0,0,0,1.11.21A2.76,2.76,0,0,0,41.84,45,5.46,5.46,0,0,0,43,44.12a4.93,4.93,0,0,0,.8-1,2.76,2.76,0,0,0,.36-1.1A2.4,2.4,0,0,0,44,40.87,3.7,3.7,0,0,0,43.14,39.65Z"/></g></svg>