<svg id="Capa_1" data-name="Capa 1" xmlns="http://www.w3.org/2000/svg" viewBox="0 0 44.77 41.88"><defs><style>.cls-1{fill:#fff;}</style></defs><title>icono telegram</title><path class="cls-1" d="M50.84,10.94a14.34,14.34,0,0,1-.27,2.14c-.42,2.3-.87,4.61-1.31,6.91-.39,2.06-.79,4.13-1.19,6.19-.46,2.4-.9,4.82-1.36,7.22s-.92,4.79-1.37,7.18S44.4,45.51,43.93,48A3.47,3.47,0,0,1,43,49.82a1.74,1.74,0,0,1-2.09.27,4.58,4.58,0,0,1-1.08-.66l-9.32-7.66-.62-.49-2.12,2.27c-1.11,1.18-2.21,2.37-3.33,3.54a1.93,1.93,0,0,1-1.58.61c0-.3,0-.58.05-.87q.2-3.32.42-6.64c.08-1.29.16-2.57.23-3.85a.68.68,0,0,1,.21-.5L32,27.61l9.06-9.13,1.59-1.6a.73.73,0,0,0,.18-.2c.06-.17.2-.46.14-.52a.76.76,0,0,0-.53-.22,3.12,3.12,0,0,0-1.52.78L30.59,24l-9.84,6.89c-.88.62-1.77,1.25-2.64,1.88a.53.53,0,0,1-.51.08c-1.74-.62-3.48-1.23-5.23-1.84-1.53-.53-3.06-1-4.58-1.59a4.68,4.68,0,0,1-1.27-.72,1.19,1.19,0,0,1-.09-1.77,4.64,4.64,0,0,1,1.83-1.23l8.89-3.82,9-3.87,7.69-3.31,7.73-3.31c2.09-.9,4.19-1.81,6.28-2.7A2,2,0,0,1,50,8.81,2.39,2.39,0,0,1,50.84,10.94Z" transform="translate(-6.08 -8.44)"/></svg>