<svg id="Capa_1" data-name="Capa 1" xmlns="http://www.w3.org/2000/svg" viewBox="0 0 47.63 34.04"><defs><style>.cls-1{fill:#fff;}</style></defs><title>mando</title><path class="cls-1" d="M52.79,35.54c-.09-1.09-.3-2.18-.46-3.26l-.51-3.57c-.18-1.27-.35-2.54-.54-3.81C51.15,24,51,23,50.82,22.14A15,15,0,0,0,44.66,13a14.78,14.78,0,0,0-8.59-2.79c-2.36,0-4.73,0-7.1,0-2.21,0-4.41,0-6.62,0a18.06,18.06,0,0,0-2.44.16,14.93,14.93,0,0,0-6.32,2.44A15.34,15.34,0,0,0,8.5,18.49a16.33,16.33,0,0,0-1.71,5.84c-.14,1.16-.33,2.32-.49,3.48S6,29.91,5.84,31s-.31,2.32-.5,3.47a9.65,9.65,0,0,0,0,3.26,8,8,0,0,0,8.9,6.48,7.79,7.79,0,0,0,6.13-4.36c1-1.84,1.86-3.71,2.78-5.56.08-.15.14-.23.33-.23q5.55,0,11.1,0a.26.26,0,0,1,.27.17c.9,1.81,1.83,3.6,2.7,5.42A8,8,0,0,0,46,44.13a7.83,7.83,0,0,0,5.79-4A7.69,7.69,0,0,0,52.79,35.54Zm-4.55,3.74a4.6,4.6,0,0,1-7.59-1.06c-1.09-2.2-2.2-4.4-3.3-6.6a1.69,1.69,0,0,0-1.61-1c-4.47,0-8.94,0-13.41,0a1.77,1.77,0,0,0-1.72,1.06c-1.09,2.19-2.17,4.38-3.28,6.55a4.47,4.47,0,0,1-4.39,2.59,4.62,4.62,0,0,1-4.32-4,7,7,0,0,1,.13-1.71c.16-1.2.33-2.4.49-3.59l.45-3.23c.17-1.2.37-2.4.5-3.61a12,12,0,0,1,4.59-8.49,11.11,11.11,0,0,1,5.94-2.44c1.19-.11,2.39-.09,3.58-.1,1.57,0,3.14,0,4.7,0,2.32,0,4.63,0,6.95,0a11.94,11.94,0,0,1,11.49,9c.24,1,.34,2,.49,2.93.21,1.4.41,2.8.61,4.2s.35,2.53.53,3.8c.11.75.26,1.51.32,2.26A4.51,4.51,0,0,1,48.24,39.28Z" transform="translate(-5.19 -10.2)"/><path class="cls-1" d="M25.59,22.31a1.7,1.7,0,0,1-1.66,1.51c-.57,0-1.14,0-1.74,0v.28a15.5,15.5,0,0,1-.06,1.81,1.64,1.64,0,0,1-1.83,1.31,1.7,1.7,0,0,1-1.51-1.67c0-.56,0-1.13,0-1.73H18.5a13.7,13.7,0,0,1-1.81-.06,1.63,1.63,0,0,1-1.3-1.81A1.71,1.71,0,0,1,17,20.42c.57,0,1.15,0,1.75,0V18.78A1.71,1.71,0,0,1,20.32,17a1.69,1.69,0,0,1,1.84,1.41,4.25,4.25,0,0,1,0,.8v1.19h.25a13.58,13.58,0,0,1,1.81.06A1.64,1.64,0,0,1,25.59,22.31Z" transform="translate(-5.19 -10.2)"/><path class="cls-1" d="M42.6,22.12a1.7,1.7,0,0,1-3.4,0,1.7,1.7,0,1,1,3.4,0Z" transform="translate(-5.19 -10.2)"/><path class="cls-1" d="M39.2,25.53a1.7,1.7,0,0,1-3.4,0,1.7,1.7,0,1,1,3.4,0Z" transform="translate(-5.19 -10.2)"/><path class="cls-1" d="M35.8,22.12a1.71,1.71,0,0,1-3.41,0,1.71,1.71,0,0,1,3.41,0Z" transform="translate(-5.19 -10.2)"/><path class="cls-1" d="M39.2,18.71a1.69,1.69,0,0,1-1.7,1.71,1.7,1.7,0,1,1,1.7-1.71Z" transform="translate(-5.19 -10.2)"/></svg>