<svg id="Capa_1" data-name="Capa 1" xmlns="http://www.w3.org/2000/svg" viewBox="0 0 51.92 47.91"><defs><style>.cls-1{fill:#fff;}</style></defs><title>respon2</title><path class="cls-1" d="M6.55,32.75a1,1,0,1,0,1,1A1,1,0,0,0,6.55,32.75Zm0,0a1,1,0,1,0,1,1A1,1,0,0,0,6.55,32.75Zm0,0a1,1,0,1,0,1,1A1,1,0,0,0,6.55,32.75Zm0,0a1,1,0,1,0,1,1A1,1,0,0,0,6.55,32.75Z" transform="translate(-2.42 -4)"/><path class="cls-1" d="M51.68,38.54a8.2,8.2,0,0,0-4.45.06c-3.74,1-7.47,2-11.2,3a17.8,17.8,0,0,1-1.77.33.33.33,0,0,1,.07-.28,3.59,3.59,0,0,0-1.21-5.74,9.88,9.88,0,0,1-1-.51c-2.32-1.49-4.66-3-6.93-4.5a6.8,6.8,0,0,0-5.43-1.09c-1.65.35-3.28.8-4.91,1.23l-4.75,1.27c-.1-.36-.17-.64-.25-.92A2.24,2.24,0,0,0,7,29.71l-2.73.7a2.25,2.25,0,0,0-1.74,3q2,7.7,4,15.38a2.26,2.26,0,0,0,2.82,1.69q1.44-.36,2.88-.75a2.26,2.26,0,0,0,1.66-2.91c-.15-.59-.3-1.18-.46-1.79a9.49,9.49,0,0,0,1.09-.3,1.51,1.51,0,0,1,1.46.19c3.4,2,6.82,3.94,10.23,5.92a7.21,7.21,0,0,0,5.88.82q9.87-2.93,19.73-5.89A3.78,3.78,0,0,0,54.34,42,3.59,3.59,0,0,0,51.68,38.54ZM6.57,34.68a1,1,0,1,1,1-1A1,1,0,0,1,6.57,34.68Zm44.49,9.5Q41.52,47,32,49.88a6,6,0,0,1-5-.57c-3.58-2.09-7.18-4.15-10.77-6.24a1.67,1.67,0,0,0-1.53-.19c-.52.19-1.07.29-1.68.45-.81-3.13-1.6-6.22-2.41-9.36l2.32-.63c2.37-.63,4.74-1.28,7.13-1.84a5.21,5.21,0,0,1,4.32.86C26.69,34,29.11,35.45,31.5,37c.34.21.72.36,1.07.55A1.94,1.94,0,0,1,33.46,40a1.72,1.72,0,0,1-2.25,1,4.72,4.72,0,0,1-1-.45l-4.58-2.63c-.13-.08-.27-.17-.41-.24a.84.84,0,1,0-.83,1.47c.32.21.65.41,1,.59,2,1.11,4.08,2.27,6.16,3.31a6.55,6.55,0,0,0,4.75.33q5.58-1.53,11.15-3A7.23,7.23,0,0,1,51,40.1a1.93,1.93,0,0,1,1.7,1.84A2.18,2.18,0,0,1,51.06,44.18Z" transform="translate(-2.42 -4)"/><path class="cls-1" d="M53.39,18.58c0-1.54,0-1.58-1.45-2.08-.78-.26-1.37-.6-1.48-1.49a1.14,1.14,0,0,0-.2-.54,2.7,2.7,0,0,1,0-3.34,1,1,0,0,0-.23-1.31c-.75-.72-1.48-1.47-2.22-2.21s-.9-.9-1.93-.35a2.22,2.22,0,0,1-2.68,0s0,0,0,0a5.1,5.1,0,0,1-1.81-.74,5.5,5.5,0,0,1-.79-1.86A.91.91,0,0,0,39.68,4H35.86a.87.87,0,0,0-.9.65c-.07.2-.17.39-.22.59A2,2,0,0,1,33,7a.61.61,0,0,0-.29.11,2.79,2.79,0,0,1-3.44,0A.91.91,0,0,0,28,7.32c-.76.79-1.55,1.55-2.33,2.33s-.79.84-.3,1.73a2.51,2.51,0,0,1,0,2.92c-.35.52-.35,1.33-.77,1.73a5.49,5.49,0,0,1-1.81.76.88.88,0,0,0-.63.91v3.83a.86.86,0,0,0,.64.9c.54.2,1.08.39,1.6.63a.94.94,0,0,1,.42.46c.3.69.49,1.43.85,2.07a1.38,1.38,0,0,1,0,1.5A15.6,15.6,0,0,0,25,28.67a3.28,3.28,0,0,0,.43.68c.79.82,1.6,1.61,2.4,2.42.65.64.82.74,1.6.28a3.3,3.3,0,0,1,3.14,0,3.27,3.27,0,0,1,2.34,2.49.92.92,0,0,0,1.06.73c1.08,0,2.16,0,3.24,0s1.2,0,1.5-1a3.15,3.15,0,0,1,2-2.08,3.42,3.42,0,0,1,3.62.09A.82.82,0,0,0,47.46,32l2.7-2.7a.89.89,0,0,0,.2-1.1c-.24-.52-.49-1-.69-1.57a.94.94,0,0,1,0-.62c.32-.83.65-1.65,1-2.46a1.12,1.12,0,0,1,.51-.5,13,13,0,0,1,1.46-.57,1,1,0,0,0,.73-1.08C53.38,20.46,53.39,19.52,53.39,18.58Zm-15.58,9a7.92,7.92,0,1,1,7.88-8A8,8,0,0,1,37.81,27.54Z" transform="translate(-2.42 -4)"/><path class="cls-1" d="M7.53,33.7a1,1,0,1,1-1-1A1,1,0,0,1,7.53,33.7Z" transform="translate(-2.42 -4)"/><path class="cls-1" d="M42.38,18.82C41,20.24,39.6,21.66,38.18,23a1.82,1.82,0,0,1-2.67,0c-.78-.75-1.55-1.51-2.3-2.29a1.89,1.89,0,1,1,2.66-2.68c.31.3.59.64.89,1l2.93-2.86a1.88,1.88,0,0,1,2.69,2.64Z" transform="translate(-2.42 -4)"/></svg>