<svg id="Capa_1" data-name="Capa 1" xmlns="http://www.w3.org/2000/svg" viewBox="0 0 30.55 23.34"><defs><style>.cls-1{fill:#fff;}</style></defs><title>tv</title><path class="cls-1" d="M43.14,19.69a2.43,2.43,0,0,0-.25-1.06,2.56,2.56,0,0,0-2.48-1.48H15.33a2.68,2.68,0,0,0-1.64.51,2.42,2.42,0,0,0-1.08,2.07V32c0,.66,0,1.32,0,2a2.35,2.35,0,0,0,.87,1.8,2.74,2.74,0,0,0,1.9.66h11v2h-7a2.65,2.65,0,0,0-.68.09,2,2,0,0,0-1.43,1.87H38.56c0-.15,0-.29,0-.42a2.05,2.05,0,0,0-2-1.54H29.43v-2h.13c2.31,0,4.62,0,6.94,0,1.42,0,2.84,0,4.26,0a2.54,2.54,0,0,0,2.39-2.51Q43.16,26.82,43.14,19.69Zm-2.5,14.46H15V19.27H40.64Z" transform="translate(-12.61 -17.14)"/><path class="cls-1" d="M36.06,22.22c-.22.61-.45,1.2-.67,1.79-.85,2.29-1.71,4.57-2.55,6.86a.26.26,0,0,1-.3.21H31.1a.21.21,0,0,1-.24-.17C30,28.46,29,26,28.11,23.55l-.49-1.33c.8,0,1.58,0,2.35,0,.06,0,.14.1.16.17.49,1.32,1,2.66,1.44,4,.09.23.17.47.27.75.22-.61.42-1.18.63-1.74.35-1,.71-2,1.07-3a.3.3,0,0,1,.17-.18C34.49,22.21,35.26,22.22,36.06,22.22Z" transform="translate(-12.61 -17.14)"/><polygon class="cls-1" points="14.36 5.09 14.36 7.18 11.67 7.18 11.67 13.92 9.36 13.92 9.36 7.19 6.65 7.19 6.65 5.09 14.36 5.09"/></svg>